<svg width="40" height="40" viewBox="0 0 100 85" fill="none" xmlns="http://www.w3.org/2000/svg">
<circle cx="57" cy="40" r="40" fill="#C4C4C4"/>
<path d="M86.4839 75.0368C94.087 71.9967 99.577 64.348 99.9771 56.2387C100.377 48.1295 95.6655 39.987 88.3974 36.2287C85.4377 34.6979 82.0996 33.8326 79.45 31.8209C77.0291 29.983 75.3346 27.2284 74.7969 24.2548C74.2028 20.9731 74.9638 17.4971 73.9415 14.3207C72.7121 10.5022 68.742 7.7315 64.697 7.86891C60.6521 8.00632 56.9639 11.2268 56.0011 15.1193C53.8882 16.6716 53.1618 19.8095 54.3804 22.1186C52.2695 30.5702 56.3838 39.9612 63.8416 44.5719C67.4789 46.8209 71.7786 47.9492 75.1937 50.517C79.6365 53.8577 82.1148 59.5934 81.4871 65.0812C81.2844 66.8589 80.7802 68.6055 80.7661 70.3939C80.7531 72.1824 81.344 74.1158 82.8423 75.1152C84.3405 76.1168 85.9537 76.7469 86.4839 75.0368Z" fill="#333333"/>
<path d="M59.2385 34.6841C52.3488 38.9008 47.4865 45.6596 43.1803 52.4527C38.8741 59.2458 34.8486 66.3599 28.9932 71.9013C23.1378 77.4427 14.9536 81.2709 6.99709 79.7647C6.52115 80.8758 5.89668 82.1146 6.43659 83.1967C15.0826 85.5423 24.5417 85.6475 32.9471 82.5601C41.3524 79.4727 48.7354 73.722 53.7452 66.361C52.8844 62.3246 52.6351 57.9963 53.5165 53.9642C54.1908 50.8832 55.8387 48.1125 57.0432 45.1937C58.2487 42.2759 60.4083 37.6158 59.2385 34.6841Z" fill="#E6E6E6"/>
<path d="M80.5484 84.0639C82.8934 75.6347 84.0708 66.8868 84.035 58.1431C84.009 51.8277 83.2511 45.2214 79.6995 39.9762C76.1479 34.7311 69.3991 33.7413 63.0233 33.8959C57.6373 34.0258 52.8996 37.9666 50.5231 42.7545C48.1467 47.5423 47.7564 53.0504 47.8767 58.3846C48.073 67.0832 49.5214 75.7539 52.1656 84.0521L80.5484 84.0639Z" fill="#F2F2F2"/>
<path d="M82.917 59.047C80.9048 56.3965 77.0995 54.5307 74.3252 52.6736C73.6682 55.0568 73.7137 57.5645 73.485 60.0249C73.2562 62.4843 72.6925 65.0382 71.0609 66.9071C69.8705 68.2705 68.2182 69.1454 66.5758 69.9226C61.2711 72.4335 55.6336 74.252 49.854 75.3245C50.1933 76.9218 50.576 78.5096 51.001 80.0865C51.6374 80.5191 52.3269 80.8025 52.9969 80.8509C55.2649 81.0151 57.4549 80.1295 59.6525 79.5508C62.8691 78.7039 66.218 78.5063 69.5257 78.1338C72.8334 77.7624 76.1834 77.1934 79.1431 75.6841C80.559 74.9616 81.8806 73.9912 82.956 72.8232C83.5642 68.8137 83.9177 64.7655 84.0109 60.712C83.6835 60.1312 83.3171 59.573 82.917 59.047Z" fill="#E6E6E6"/>
<path d="M60.6999 29.4999C61.0468 32.1428 60.5503 34.8878 59.2981 37.2484C58.7257 38.3273 57.9722 39.4738 58.2378 40.6643C58.5153 41.9106 59.9161 42.69 61.2008 42.588C62.4855 42.486 63.6206 41.6863 64.4629 40.7201C65.9591 39.0036 66.7049 36.7449 66.9554 34.4906C67.2058 32.2362 66.9987 29.9593 66.7906 27.7018C64.58 27.5998 62.1418 27.8392 60.6999 29.4999Z" fill="#FCEE21"/>
<path d="M66.925 29.2338C66.8838 28.7228 66.8361 28.2118 66.7895 27.7019C64.58 27.601 62.1418 27.8404 60.6999 29.5C60.9124 31.1232 60.8061 32.7849 60.4028 34.3727C63.0308 33.3636 65.3357 31.5386 66.925 29.2338Z" fill="#FBB03B"/>
<path d="M57.9256 16.7801C56.2332 21.6098 56.3178 27.0299 58.1597 31.8059C61.5639 32.0872 65.5969 30.8741 67.6069 28.1388C69.6169 25.4035 69.8283 21.4015 67.8661 18.633C65.9038 15.8633 60.9276 15.1655 57.9256 16.7801Z" fill="#FCEE21"/>
<path d="M55.8419 20.1435C56.9813 19.8407 58.034 19.2267 58.8547 18.3883C59.6027 20.8777 61.5846 23.2223 63.8569 24.5212C64.541 24.912 65.2945 25.2447 65.7878 25.8556C66.7993 27.1051 66.3407 28.9333 66.6442 30.507C66.9402 32.0454 68.0612 33.4034 69.5248 33.997C70.9884 34.5906 72.749 34.4017 74.05 33.5118C72.2763 31.6686 71.8861 29.0278 71.7863 26.4836C71.6855 23.9404 71.9489 21.364 71.4578 18.866C70.9667 16.368 69.5161 13.8495 67.1017 12.9768C65.4799 12.3906 63.6769 12.6257 61.9976 13.0229C60.1979 13.448 58.382 14.0846 57.0333 15.3385C55.6847 16.5923 54.9052 18.589 55.5329 20.3131C55.7638 20.2175 55.6001 20.2079 55.8419 20.1435Z" fill="#333333"/>
<path d="M45.728 79.4316C43.7657 77.8289 40.9535 77.3125 38.5413 78.1112C37.198 78.5556 35.935 79.4477 35.4005 80.7466C34.866 82.0456 35.2704 83.7567 36.5128 84.4277C39.1343 85.8436 42.5276 84.2215 45.5014 83.95C46.3265 83.8748 47.3011 83.6837 47.6253 82.928C47.1732 81.7074 46.7406 80.2593 45.728 79.4316Z" fill="#FCEE21"/>
<path d="M10.5586 79.4316C8.5963 77.8289 5.78404 77.3125 3.37183 78.1112C2.02858 78.5556 0.765553 79.4477 0.231072 80.7466C-0.303409 82.0456 0.100975 83.7567 1.3434 84.4277C3.96485 85.8436 7.35821 84.2215 10.332 83.95C11.157 83.8748 12.1317 83.6837 12.4558 82.928C12.0037 81.7074 11.5723 80.2593 10.5586 79.4316Z" fill="#FCEE21"/>
<path d="M77.5419 38.1803C88.1849 49.6829 94.0003 65.4956 93.1687 81.0882C90.4551 82.9733 86.9902 83.4682 83.676 83.5519C71.1217 83.8697 58.5673 84.1874 46.013 84.5041C44.7153 83.115 44.4258 80.2047 45.1847 78.4689C52.9753 76.4185 60.9036 73.5823 68.6932 71.5319C71.2518 70.8588 74.1323 69.9238 75.198 67.5234C75.9233 65.8885 75.5731 63.9594 74.8121 62.3406C74.051 60.7207 72.9148 59.3069 71.989 57.7739C68.381 51.7956 68.8959 44.5666 72.4053 38.6978C73.5046 36.8578 76.0827 36.6044 77.5419 38.1803Z" fill="#F2F2F2"/>
<path d="M35.1694 13.1226C43.2321 13.1226 49.7673 18.4675 49.7673 25.0599C49.7673 28.3062 48.1823 31.2486 45.6118 33.401C46.5919 36.7578 45.6985 40.6386 43.2354 43.1613C43.4056 40.5881 42.4938 37.9988 40.8015 36.0762C39.0679 36.6687 37.1664 36.9972 35.1705 36.9972C27.1077 36.9972 20.5725 31.6523 20.5725 25.0599C20.5725 18.4675 27.1066 13.1226 35.1694 13.1226Z" fill="#FCEE21"/>
<path d="M27.0547 4C18.992 4 12.4568 9.34496 12.4568 15.9373C12.4568 19.1836 14.0418 22.1261 16.6123 24.2784C15.6322 27.6353 16.5256 31.516 18.9887 34.0387C18.8185 31.4655 19.7303 28.8763 21.4226 26.9536C23.1562 27.5462 25.0577 27.8747 27.0536 27.8747C35.1164 27.8747 41.6516 22.5297 41.6516 15.9373C41.6516 9.34496 35.1164 4 27.0547 4Z" fill="#FFC631"/>
</svg>
