<svg width="40" height="40" viewBox="0 0 96 124" fill="none" xmlns="http://www.w3.org/2000/svg">
<circle cx="56" cy="53" r="40" fill="#C4C4C4"/>
<path d="M53.6726 35.7222C58.6915 35.4044 63.3021 38.4712 66.9258 41.9592C76.8085 51.4699 82.3428 64.7825 84.7986 78.2759C87.2531 91.7694 86.8746 105.599 86.487 119.309C84.5066 119.411 82.2653 119.528 80.2848 119.631C80.2332 101.089 75.0825 81.7872 64.7658 66.3805C58.4538 56.9525 59.9639 45.1631 53.6726 35.7222Z" fill="#FCDB01"/>
<path d="M69.8298 45.0442C69.8298 45.0442 77.7722 52.4582 81.0238 63.7865L70.2213 70.7896L69.8298 45.0442Z" fill="#E6E6E6"/>
<path d="M55.3015 47.0052C54.6982 45.7999 54.0962 44.5933 53.4929 43.388C52.3367 41.0756 50.2026 38.3523 48.8888 36.1265C38.4583 41.1195 28.9748 48.7285 23.0904 58.6836C20.0339 50.9376 16.042 43.3751 11.8629 36.173C10.1395 37.6354 8.19917 39.0939 6.47583 40.5562C9.76102 52.4594 14.6326 64.3574 21.5389 74.5954C32.4693 70.8826 42.923 65.0641 51.8355 57.7289C54.7693 55.3118 57.0003 50.4028 55.3015 47.0052Z" fill="#FCEE21"/>
<path d="M25.248 55.3596C24.2313 59.3089 31.1841 70.5558 31.1841 70.5558L40.7451 65.2772L38.2041 44.5701C38.2028 44.5701 26.2983 51.2774 25.248 55.3596Z" fill="#E6E6E6"/>
<path d="M50.2142 25.1625C49.0077 23.3152 47.3308 21.2301 45.1398 21.4898C43.1827 21.721 41.9929 23.7143 40.338 24.7853C37.3874 26.6959 32.7897 24.868 31.9564 21.4536C31.5146 19.6437 31.7807 17.2886 30.1517 16.3843C28.6312 15.5395 26.8135 16.7771 25.076 16.8597C22.2158 16.9967 20.1644 13.8988 19.9564 11.0438C19.6954 7.47958 21.4394 3.83654 24.3784 1.80315C27.3174 -0.228936 31.3428 -0.575154 34.5854 0.925984C37.7362 2.38449 40.1391 5.41519 43.5405 6.11408C46.8257 6.78972 50.1329 5.09868 53.4865 5.04959C58.2793 4.97854 62.8434 8.73655 63.6935 13.4544C65.7204 14.2463 67.0575 16.4903 67.3895 18.6412C68.1827 23.7893 65.7527 29.2952 61.4159 32.1786C59.0312 33.7637 56.0056 34.7481 54.6285 37.2595C53.9374 32.623 52.7747 29.0859 50.2142 25.1625Z" fill="#333333"/>
<path d="M71.7976 80.3325C60.2019 80.494 50.3527 82.1721 38.974 84.4096C38.7415 86.4934 38.4844 88.5746 38.2041 90.6532C50.1163 92.9243 61.9304 94.6037 72.2303 89.5719C72.0973 86.5024 71.9526 83.4239 71.7976 80.3325Z" fill="#1A1A1A"/>
<path d="M39.1665 85.7249C39.1665 57.7742 33.9655 62.7789 36.9097 51.5371C38.0672 47.1164 39.8628 42.7267 43.046 39.4479C46.2304 36.1692 51.0167 34.181 55.4594 35.2546C61.278 36.6614 64.7595 42.5639 66.9001 48.1551C70.8093 58.3659 72.8285 72.2094 72.1321 83.1205C62.5143 90.1081 50.8372 88.0011 39.1665 85.7249Z" fill="#E6E6E6"/>
<path d="M52.8291 34.9082C58.8582 35.465 64.6056 38.6042 68.3327 43.3763C72.0597 48.1484 73.7132 54.485 72.7921 60.4702C72.0299 65.4257 69.5948 70.1992 70.087 75.1883C67.5085 64.4478 62.6627 53.5329 56.777 44.1863C54.9516 41.2874 52.7929 38.3342 52.8291 34.9082Z" fill="#E6E6E6"/>
<path d="M64.4752 44.9952C65.2232 43.6995 65.665 42.2745 65.9621 40.8044C63.3228 38.3654 60.0906 36.5671 56.6259 35.6086C56.2473 35.4716 55.8598 35.3515 55.4606 35.2546C54.7824 35.0905 54.0964 34.9988 53.4104 34.9717C53.2166 34.9484 53.0242 34.9278 52.8291 34.9097C52.8291 34.9278 52.8291 34.9458 52.8291 34.9639C49.4212 35.0066 46.0352 36.6033 43.5135 38.9893C37.7014 42.4128 32.3648 46.7017 28.0203 51.8007C28.6442 51.9066 29.285 51.8821 29.9012 51.6922C32.2007 50.9817 33.7277 48.2946 36.1344 48.2713C38.0205 48.2533 39.4403 49.8913 40.6934 51.302C41.9465 52.7127 43.7254 54.1441 45.5236 53.5744C48.2572 52.7076 48.1874 48.2106 50.8422 47.1268C53.0293 46.2328 55.2462 48.2868 57.565 48.7442C60.3102 49.2867 63.0774 47.4187 64.4752 44.9952Z" fill="#CCCCCC"/>
<path d="M51.0564 28.6594C51.0448 32.6216 51.0319 36.5824 51.0203 40.5445C52.7591 41.972 55.388 41.6129 57.371 40.551C57.207 36.417 57.3788 32.5324 57.2147 28.3985C55.3196 28.2228 52.9516 28.8351 51.0564 28.6594Z" fill="#FCEE21"/>
<path d="M57.3157 38.5423C57.255 35.1408 57.3519 31.8569 57.2149 28.3986C55.3211 28.2242 52.9518 28.8353 51.058 28.6608C51.0489 31.7071 51.0399 34.7532 51.0295 37.7994C53.0849 38.2761 55.1932 38.479 57.3157 38.5423Z" fill="#FCDB01"/>
<path d="M61.4741 18.3945C61.9766 20.8452 62.3422 23.3553 62.0981 25.8447C61.8539 28.3341 60.9522 30.8248 59.2069 32.6166C57.4616 34.4084 54.7978 35.3941 52.3743 34.7753C49.6278 34.0738 47.681 31.4888 46.9343 28.7552C46.1863 26.0204 46.4266 23.1253 46.6901 20.3026C46.88 18.2718 47.4575 15.9413 48.9819 14.5861C50.5062 13.2323 52.736 12.6638 54.6841 13.2658C56.1155 13.709 57.2975 14.7063 58.4357 15.6803C59.517 16.6053 60.3928 17.4696 61.4741 18.3945Z" fill="#FCEE21"/>
<path d="M72.7922 60.4704C73.5789 55.3585 72.486 49.9921 69.8299 45.561C70.9086 49.9327 71.0314 54.5369 70.18 58.9589C69.8894 60.4704 69.6413 61.9457 68.3353 62.7608C66.1042 62.4417 63.8538 62.1213 61.6047 62.2725C59.3556 62.4236 57.0793 63.0825 55.3469 64.5255C57.5857 64.1509 59.756 64.032 62.0181 64.2219C64.2801 64.4131 66.5719 65.2334 68.0976 66.9141C69.5909 68.5587 70.1904 70.8272 70.4578 73.0324C70.9435 77.0513 70.4694 81.1801 69.1065 84.9924C70.1348 84.4576 71.1451 83.8375 72.132 83.1192C72.4615 77.9453 72.1798 72.1126 71.3776 66.3199C71.9215 64.3821 72.4899 62.4404 72.7922 60.4704Z" fill="#B3B3B3"/>
<path d="M44.7922 20.8915C48.4443 22.5994 52.9413 22.3604 56.3918 20.2753C56.605 21.5982 57.3814 23.0179 58.4032 23.8848C58.482 24.9312 58.3386 26.0641 58.163 27.0989C58.3864 27.1234 58.6203 27.2991 58.8451 27.325C58.9058 26.44 59.2752 25.3381 59.4832 24.4764C59.5711 24.1134 59.7351 23.691 60.102 23.6199C60.3539 23.5721 60.6123 23.7284 60.7531 23.9429C60.8939 24.1573 60.9404 24.4196 60.9663 24.6754C61.2066 26.9658 60.0245 29.3454 58.0557 30.5404C57.3581 31.8633 56.9887 33.2933 57.0545 34.788C58.1694 33.2533 60.1421 32.3232 61.5515 31.0546C64.4595 28.4347 65.6415 24.1677 64.8573 20.3347C64.0732 16.5005 61.4714 13.1559 58.1358 11.1096C56.5882 10.1601 54.848 9.45858 53.0343 9.37332C51.2205 9.28806 49.3292 9.87585 48.0723 11.1871C45.787 13.5706 46.2714 17.9358 44.7922 20.8915Z" fill="#333333"/>
<path d="M82.9449 122.27C84.1799 122.381 85.3167 123.124 86.5569 123.102C87.6744 123.083 88.7208 122.411 89.3551 121.491C89.9894 120.571 90.2464 119.431 90.2568 118.312C90.2749 116.148 89.1548 113.792 87.0866 113.157C84.2496 112.288 81.0768 114.967 79.5253 117.145C78.7722 118.202 77.8239 119.854 78.4285 121.166C79.2605 122.977 81.4114 122.132 82.9449 122.27Z" fill="#FCDB01"/>
<path d="M37.9754 67.2189C38.6162 71.0299 39.1665 76.634 39.1665 85.7248C42.2295 86.3216 45.2925 86.9082 48.318 87.3203C46.5288 86.3914 44.8481 85.2972 43.4891 83.8206C40.5049 80.5793 39.5102 75.6406 41.0074 71.4976C42.5047 67.3546 46.8479 64.6701 51.2144 64.0875C49.088 62.2169 45.6387 63.5242 43.0331 62.4171C41.5087 61.7699 40.4377 60.3488 39.7375 58.8477C38.4715 56.1348 38.2118 52.9672 39.0167 50.0837C37.3101 52.4194 37.4458 55.5031 37.1926 58.3852C36.7352 63.5785 33.7989 68.4514 29.5564 71.4537C32.4243 70.1799 35.2367 68.7653 37.9754 67.2189Z" fill="#CCCCCC"/>
<path d="M12.3798 39.3601C13.2737 36.1757 13.9326 32.9254 14.3473 29.644C14.4015 29.2177 14.4493 28.7733 14.3046 28.369C14.1599 27.9646 13.762 27.6171 13.337 27.6778C12.8629 27.745 12.5942 28.2437 12.4146 28.6881C11.7971 30.215 11.3463 31.8092 11.0724 33.4331C10.6797 28.0137 9.27542 22.6461 7.835 17.4076C7.64252 16.7061 7.10252 15.8263 6.43076 16.1041C5.95018 16.3017 5.88559 16.9451 5.90884 17.4644C6.0897 21.4356 7.03922 25.3706 8.6915 28.9865C7.67611 25.107 4.87019 21.5699 2.14567 18.6271C1.32792 19.7962 1.43902 21.4188 2.03844 22.7145C2.63786 24.0103 3.65197 25.0579 4.61828 26.1082C5.58459 27.1585 6.54444 28.2747 6.9953 29.6285C6.63487 28.4207 5.76157 27.3097 4.75522 26.5513C2.40662 28.5343 0.406825 31.7304 0.0283113 34.7818C-0.248146 37.0128 1.54883 39.2593 3.29025 40.6804C5.03167 42.1014 7.30663 42.852 9.55188 42.7474C10.8657 41.7965 11.9405 40.922 12.3798 39.3601Z" fill="#FCEE21"/>
<path d="M3.69977 37.5528C4.22943 37.7298 5.02651 37.8215 5.55617 37.9972C6.95783 36.7609 7.98874 35.0104 8.65663 33.2638C8.19414 31.9564 7.72778 30.6413 7.04826 29.4309C6.44238 28.3522 5.65306 27.3536 4.64799 26.6392C2.3459 28.6312 0.400366 31.7769 0.0283114 34.7817C-0.248146 37.0128 1.54883 39.2593 3.29025 40.6804C4.12221 41.3586 5.0756 41.8831 6.08841 42.2358C4.8211 41.0007 3.99173 39.2981 3.69977 37.5528Z" fill="#FCDB01"/>
<path d="M55.2166 89.2555C55.2166 89.5526 54.975 89.7942 54.6779 89.7942C54.3807 89.7942 54.1392 89.5526 54.1392 89.2555C54.1392 88.9584 54.3807 88.7168 54.6779 88.7168C54.975 88.7168 55.2166 88.9571 55.2166 89.2555Z" fill="#333333"/>
<path d="M55.2166 91.1505C55.2166 91.4476 54.975 91.6892 54.6779 91.6892C54.3807 91.6892 54.1392 91.4476 54.1392 91.1505C54.1392 90.8534 54.3807 90.6118 54.6779 90.6118C54.975 90.6118 55.2166 90.8521 55.2166 91.1505Z" fill="#333333"/>
<path d="M59.2586 89.2555C59.2586 89.5526 59.017 89.7942 58.7199 89.7942C58.4227 89.7942 58.1812 89.5526 58.1812 89.2555C58.1812 88.9584 58.4227 88.7168 58.7199 88.7168C59.017 88.7168 59.2586 88.9571 59.2586 89.2555Z" fill="#333333"/>
<path d="M59.2586 91.1505C59.2586 91.4476 59.017 91.6892 58.7199 91.6892C58.4227 91.6892 58.1812 91.4476 58.1812 91.1505C58.1812 90.8534 58.4227 90.6118 58.7199 90.6118C59.017 90.6118 59.2586 90.8521 59.2586 91.1505Z" fill="#333333"/>
<path d="M47.3788 27.3974C46.357 27.5344 45.3157 27.36 44.321 27.0887C43.9063 26.975 43.4619 26.8445 43.055 26.9853C42.3393 27.2321 42.1455 28.2514 42.5369 28.8999C42.9284 29.5484 43.697 29.8701 44.4411 30.0135C46.5029 30.4113 48.7198 29.706 50.2584 28.2772C50.6485 27.9142 51.0167 27.4711 51.0671 26.9401C51.1006 26.5965 50.9043 26.0255 50.5271 25.917C50.1098 25.7968 49.8824 26.1818 49.5956 26.4195C48.9549 26.9543 48.2095 27.2863 47.3788 27.3974Z" fill="#FCDB01"/>
<path d="M48.3605 24.6961C48.3605 25.3575 48.053 25.8936 47.6745 25.8936C47.296 25.8936 46.9885 25.3575 46.9885 24.6961C46.9885 24.0347 47.296 23.4985 47.6745 23.4985C48.053 23.4972 48.3605 24.0334 48.3605 24.6961Z" fill="#333333"/>
<path d="M53.4479 26.3898C54.0323 26.3898 54.506 25.5616 54.506 24.5399C54.506 23.5182 54.0323 22.6899 53.4479 22.6899C52.8636 22.6899 52.3899 23.5182 52.3899 24.5399C52.3899 25.5616 52.8636 26.3898 53.4479 26.3898Z" fill="#333333"/>
</svg>
