<svg width="40" height="40" viewBox="0 0 98 98" fill="none" xmlns="http://www.w3.org/2000/svg">
<circle cx="42" cy="45" r="" fill="#C4C4C4"/>
<path d="M28.8902 37.1118C24.9287 36.1156 21.8266 32.3888 21.5792 28.3321C21.01 25.3903 22.5475 22.2703 21.3308 19.5842C20.5491 17.8593 18.9197 16.6605 17.9515 15.031C16.481 12.5571 16.819 9.15172 18.748 7.01196C20.6771 4.87221 24.0425 4.16673 26.6743 5.35172C28.7548 1.63552 33.5043 -1.25744 37.3709 0.555565C41.1992 2.35054 42.5364 7.34719 46.1908 9.47104C50.9521 12.2378 57.796 9.14323 62.1713 12.4807C66.2704 15.6081 65.542 22.4231 69.3713 25.8719C71.728 27.9947 75.2011 28.279 78.0003 29.7791C81.1706 31.4786 83.378 34.8818 83.5198 38.4622C83.6616 42.0426 81.6824 45.6538 78.5271 47.3809C76.3389 48.5797 73.7466 48.8799 71.5456 50.0553C67.0616 52.4497 65.1997 57.79 61.8567 61.607C57.4345 66.6567 50.1129 68.8898 43.5324 67.4799C36.9519 66.069 31.3002 61.1901 28.6673 55.0265C26.0366 48.864 25.9908 43.1555 28.8902 37.1118Z" fill="#4D4D4D"/>
<path d="M39.9973 15.7651C.7427 18.797 43.4768 20.8816 46.1203 22.5631C48.7639 24.2445 51.6441 25.9313 53.0389 28.7267C55.2345 33.1293 52.8438 38.5131 49.4783 42.1116C46.3027 45.5063 41.7323 48.1797 37.1544 47.313C34.0054 46.7168 31.3491 44.5112 29.5417 41.8771C27.7342 39.243 26.6625 36.1898 25.6484 33.1643C24.5756 29.9679 23.5338 26.7079 23.37 23.3396C23.2736 19.9714 24.164 16.4302 26.5079 13.9966C28.2279 12.2101 30.5227 11.3169 32.9167 11.9874C35.3096 12.6578 38.1973 14.0582 39.9973 15.7651Z" fill="black"/>
<path d="M25.5728 34.2134C21.8512 35.0345 18.7907 37.8511 16.9918 41.1938C15.1928 44.5377 14.521 48.3706 14.2736 52.1547C14.0262 55.9387 14.1776 59.7419 13.9015 63.5239C13.0612 75.0141 8.13032 86.1669 0.187012 94.5488C0.971852 95.7422 2.42317 97.5255 3.79237 97.9478C14.8516 87.9566 22.3513 74.6576 25.7487 60.1854C26.733 55.9907 25.9535 51.9616 24.0607 48.0873C23.1937 46.3114 21.9066 44.6639 21.6667 42.7034C21.2924 39.6556 23.1479 36.1144 25.5728 34.2134Z" fill="#FCEE21"/>
<path d="M21.6644 42.7045C21.3477 .1139 22.62 37.1679 24.5233 35.1746C24.3463 35.0091 24.1629 34.851 23.9731 34.7014C20.9766 35.8758 18.5251 38.3423 16.9906 41.1928C15.1916 44.5367 14.5198 48.3695 14.2724 52.1536C14.0581 55.4338 14.1423 58.7278 13.9888 62.0101C16.885 62.6646 19.9327 62.6657 22.8193 61.9645C24.019 61.6727 25.0277 60.8092 25.8659 59.6285C26.6582 55.6343 25.867 51.7898 24.0584 48.0874C23.1915 46.3125 21.9044 44.665 21.6644 42.7045Z" fill="#E6E6E6"/>
<path d="M33.4137 31.7491C29.9672 31.9114 26.4983 32.6859 23.5232 34.4246C20.5491 36.1634 18.1039 38.9333 17.1794 42.24C16.064 46.2309 17.2093 50.451 18.0666 54.5056C19.7771 62.5936 20.3337 70.9214 19.7141 79.1632C29.1024 82.4667 .1722 81.233 49.2789 77.225C47.6634 71.053 47.4128 64.3876 48.267 58.0659C48.8332 53.8691 49.9454 49.7265 50.003 45.4926C50.0606 41.2576 48.8769 36.7415 45.6469 33.9833C42.4574 31.2601 37.6119 31.5518 33.4137 31.7491Z" fill="#E6E6E6"/>
<path d="M.152 32.3834C45.4614 31.7681 50.8475 33.2703 55.4532 35.4695C60.0588 37.6686 64.0853 .5499 68.4329 43.061C77.0395 48.0301 86.9566 51.5436 97.3451 53.3026C97.1766 54.9522 97.0252 57.1121 96.1732 58.6217C79.0378 54.7464 62.167 49.8197 46.1993 43.5204C43.5739 42.485 .9272 .7823 39.7862 38.6277C38.6452 36.4741 39.1229 34.5731 .152 32.3834Z" fill="#FCEE21"/>
<path d="M63.0893 39.7988C60.6218 38.2627 58.1361 36.751 55.4531 35.4695C50.8475 33.2703 45.4624 31.7681 .1519 32.3834C39.1218 34.5731 38.6451 36.4741 39.7861 38.6287C.9271 .7833 43.5728 42.4849 46.1992 43.5214C50.4764 45.2082 54.8186 46.7963 59.2131 48.2932C60.9832 45.7121 62.3002 42.8223 63.0893 39.7988Z" fill="#E6E6E6"/>
<path d="M28.662 23.0998C29.0256 26.399 29.0896 29.7206 28.8539 33.0273C29.8851 34.4287 31.6083 35.4736 33.563 35.5914C35.5176 35.7091 37.5181 34.9962 38.7764 33.7328C37.9041 29.9359 37.1481 26.0479 36.8548 22.1885C34.5877 22.5768 30.928 22.7125 28.662 23.0998Z" fill="#FCEE21"/>
<path d="M38.0588 30.4305C37.5064 27.6977 37.0628 24.9363 36.8538 22.1897C34.5877 22.5769 30.928 22.7127 28.662 23.0999C28.9104 25.3564 29.0192 27.6234 28.9872 29.8894C29.675 30.5673 30.4556 31.1253 31.3684 31.4648C33.3017 32.1851 35.5155 31.7724 37.3486 30.8283C37.5906 30.7042 37.8263 30.5705 38.0588 30.4305Z" fill="#D49320"/>
<path d="M23.5978 11.7041C23.0177 18.4289 26.4599 25.3468 32.1863 28.9664C34.5728 28.1655 37.0948 26.3907 38.2976 24.1883C39.5005 21.987 .0326 19.477 .2288 16.9787C.4378 14.3075 .2203 11.4368 38.6292 9.27473C36.922 6.9525 33.7773 5.86937 30.9291 6.37221C28.0819 6.87612 23.8442 8.83659 23.5978 11.7041Z" fill="#FCEE21"/>
<path d="M24.3069 24.5734C24.2749 19.4961 25.0746 14.4146 26.6635 9.58977C27.2873 12.0584 29.6472 13.7547 32.1531 14.2671C34.2699 14.6999 36.6297 14.1536 38.5118 15.2102C39.6592 15.8541 .426 16.9967 41.0882 18.1297C41.7504 19.2627 42.3731 20.4572 43.3616 21.3229C44.3502 22.1896 45.8249 22.6606 47.0097 22.0867C46.3293 18.745 44.8716 15.2802 43.3926 12.2048C41.9135 9.12829 39.5451 6.33929 36.3706 5.05353C33.196 3.76777 29.1716 4.28547 26.8939 6.83365C24.3314 6.7891 22.1454 8.269 21.0012 10.5509C19.8569 12.8328 19.8591 15.5688 20.6066 18.0077C21.3541 20.4466 22.6785 22.6044 24.3069 24.5734Z" fill="#4D4D4D"/>
<g opacity="0.1">
<path opacity="0.1" d="M43.7701 39.9155C45.7536 42.7109 47.2145 46.1417 46.5832 49.5046C45.9519 52.8686 42.5801 55.8348 39.2328 55.0508C43.1207 57.4622 45.5712 61.2876 46.1727 65.8058C46.7442 70.0981 46.1044 74.4423 45.49 78.7218C46.7272 78.2794 48.0228 77.7787 49.28 77.2249C47.6645 71.0528 47.4139 64.3875 48.2681 58.0658C48.8343 53.869 49.9465 49.7264 50.0041 45.4925C50.0062 45.3249 50.0062 45.1562 50.0041 44.9886C50.3197 45.1074 50.6343 45.2262 50.951 45.345C51.0683 45.3885 51.1845 45.432 51.3018 45.4755C51.7263 45.6336 52.1507 45.7906 52.5751 45.9465C52.6679 45.9805 52.7596 46.0144 52.8523 46.0473C53.3066 46.2139 53.7609 46.3783 54.2162 46.5427C54.2834 46.5671 54.3495 46.5905 54.4167 46.6149C54.9019 46.7888 55.3881 46.9628 55.8744 47.1347C55.9139 47.1485 55.9544 47.1633 55.9938 47.1771C56.5099 47.3596 57.0261 47.5399 57.5443 47.7192C57.5603 47.7245 57.5752 47.7298 57.5912 47.7351C68.467 51.5065 79.6745 54.705 91.028 57.424C75.2747 51.5871 59.5224 45.7513 43.7701 39.9155Z" fill="black"/>
</g>
</svg>
