<svg width="40" height="40" viewBox="0 0 91 89" fill="none" xmlns="http://www.w3.org/2000/svg">
<circle cx="40" cy="45" r="40" fill="#C4C4C4"/>
<path d="M2.07324 38.8504C3.54146 36.5109 5.55975 33.9453 7.40025 31.8887C8.38743 33.5205 9.18115 35.4279 10.1683 37.0608C8.35815 39.1585 4.60708 39.9565 2.07324 38.8504Z" fill="white"/>
<path d="M14.1558 59.9818C13.223 59.3583 12.4826 58.4488 12.057 57.4068C11.6073 56.307 12.2954 55.1514 12.3498 53.9633C12.3822 53.242 12.4084 52.4849 12.0915 51.8372C11.7767 51.1937 11.1566 50.7437 10.4915 50.4871C9.82538 50.2306 9.10905 50.1454 8.40108 50.0613C8.58513 51.2137 8.94486 52.2126 10 52.6984C8.96578 53.7067 7.79455 55.2976 7.42226 56.6971C7.05312 58.086 7.28527 59.6264 8.04971 60.8419C8.8131 62.0574 10.0962 62.9301 11.5027 63.192C12.788 62.4507 13.6643 61.3887 14.1558 59.9818Z" fill="#FCEE21"/>
<path d="M9.37975 59.6853C7.22656 59.5686 5.13299 58.5697 3.6815 56.9663C2.94843 56.1577 2.34504 56.0673 2.2551 54.9758C2.16517 53.8855 2.49249 52.8088 2.81562 51.7636C3.02268 51.0949 3.25588 50.3852 3.79548 49.9414C4.44071 49.4105 5.36305 49.3936 6.1871 49.5209C7.8195 49.7732 9.37661 50.4966 10.6263 51.5828C11.444 54.3439 11.4629 57.7097 9.37975 59.6853Z" fill="#FCEE21"/>
<path d="M31.6478 38.6223C28.1592 46.6702 25.6212 55.1345 24.1028 63.7807C20.2722 60.7157 16.6205 57.8725 12.928 54.6413C10.8888 57.9272 8.52748 61.5863 6.48828 64.8731C13.3745 69.5542 21.0398 74.4909 27.926 79.172C30.6805 74.8957 33.2666 70.4596 35.5223 65.8973C37.7936 61.3055 39.8443 56.3731 39.6143 51.2493C39.3842 46.1256 36.6098 39.8126 31.6478 38.6223Z" fill="#808080"/>
<path d="M81.8079 77.6411C82.5524 78.5611 82.9153 79.7861 82.7909 80.9658C82.7396 81.4505 82.612 81.9458 82.7323 82.4179C82.8526 82.89 83.3556 83.3137 83.8031 83.1255C84.9409 84.1833 84.1765 86.5575 85.0518 87.8424C85.743 88.857 87.16 89.2377 88.3228 88.8539C89.6237 88.4238 90.5482 87.1768 90.8577 85.8362C91.1673 84.4956 90.9362 83.0792 90.4886 81.7786C89.4272 78.6883 87.1161 76.0534 84.1995 74.6086C83.1579 75.2627 82.3569 76.5349 81.8079 77.6411Z" fill="#FCEE21"/>
<path d="M33.6013 84.6269C36.2701 85.12 38.9796 85.2788 41.6786 85.5111C43.4449 85.6636 45.1965 85.6499 46.9492 85.3524C48.8462 85.0306 50.7003 84.487 52.5104 83.8414C53.0751 83.6395 53.6419 83.4334 54.2066 83.22C53.2937 76.1941 51.6195 69.3607 48.2522 63.1718C44.0891 55.5224 39.2985 46.6743 32.6915 41.0259C28.7323 51.5878 28.7805 63.1644 27.2924 74.352C26.9745 76.743 26.5823 79.1225 26.1169 81.4882C28.0756 83.3704 30.9556 84.1379 33.6013 84.6269Z" fill="#CCCCCC"/>
<path d="M34.6993 41.9881C32.0515 41.6033 29.3702 40.9093 27.2055 39.3279C25.0408 37.7465 23.4743 35.1294 23.7357 32.4524C23.8916 30.851 24.6623 29.3884 25.1851 27.868C25.708 26.3476 25.9632 24.579 25.1433 23.1974C24.2283 21.6549 22.256 21.0535 21.1873 19.614C19.6092 17.488 20.6529 14.2484 22.7046 12.5818C24.7564 10.9142 27.4816 10.4137 30.0813 9.96685C30.6094 7.38235 31.5934 5.22475 33.7498 3.72221C35.9061 2.21967 38.4399 1.35747 40.9884 0.729749C43.4166 0.131467 45.9578 -0.270192 48.409 0.222944C50.8602 0.71608 53.2204 2.24911 54.147 4.58336C55.2994 7.48855 54.101 11.0593 55.6926 13.7458C57.0698 16.0706 60.0293 16.855 62.7106 17.081C66.8423 17.428 71.0075 16.9433 75.1444 17.2314C79.2814 17.5195 83.5951 18.7224 86.4092 21.7853C90.1299 25.8355 90.2815 32.1853 88.4536 37.3827C86.9132 41.7599 84.0751 45.7387 80.188 48.2443C76.301 50.751 71.3432 51.6773 66.9239 50.3283C62.378 48.9404 58.263 45.2602 53.5614 45.9384C50.2192 46.42 47.5002 49.0613 44.1706 49.628C41.9055 50.0139 39.4836 49.3473 37.7299 47.8553C35.9762 46.3632 34.6962 44.2982 34.6993 41.9881Z" fill="#333333"/>
<path d="M34.0353 39.6696C32.4907 39.6948 30.9504 38.9599 29.9935 37.7402C29.0356 36.5205 28.6822 34.8444 29.0649 33.3398C29.4508 31.8225 30.5321 30.4693 30.4986 28.9047C30.4557 26.8354 28.5002 25.2772 28.1164 23.2436C27.8497 21.8294 28.3977 20.3595 29.2646 19.2155C30.1326 18.0715 31.2965 17.1956 32.4437 16.3366C33.845 15.2872 36.0003 14.2389 37.7257 13.9582C39.4512 13.6774 41.3754 14.036 42.5822 15.3051C45.1327 17.9884 43.356 23.0933 46.053 25.6273C47.0904 26.602 48.6234 26.9826 49.4956 28.1088C50.4535 29.3453 50.3269 31.0844 50.123 32.6395C49.9306 34.1042 49.6817 35.6372 48.7834 36.8065C47.585 38.3679 45.5186 38.9273 43.5882 39.2753C40.7113 39.7958 36.9582 39.6233 34.0353 39.6696Z" fill="#1A1A1A"/>
<path d="M33.5887 34.3449C32.9916 36.7938 31.5056 38.9104 30.098 40.9975C28.6905 43.0847 27.2996 45.2938 26.9409 47.79C26.5822 50.2862 27.537 53.1483 29.7906 54.2554C32.3129 59.6326 34.144 65.8257 35.7701 71.5415H48.913C51.0442 61.2393 53.2194 49.9571 48.981 40.3362C47.677 37.3763 45.6974 34.5752 42.8435 33.0769C39.9887 31.5785 35.8967 32.0885 33.5887 34.3449Z" fill="white"/>
<path d="M35.0737 27.4464C36.0515 29.6513 36.1352 32.1275 35.309 34.3744C37.1098 35.0842 39.2703 35.4322 41.0596 34.7025C41.2164 32.4566 41.3011 30.0845 41.458 27.8386C39.561 26.9595 37.0816 26.7629 35.0737 27.4464Z" fill="#FCEE21"/>
<path d="M31.172 14.7014C29.9684 19.9177 31.1427 25.6408 34.3019 29.9518C37.2467 30.895 40.636 29.4293 42.5612 26.9972C44.4853 24.5652 45.2801 21.4297 45.7695 18.3616C46.3279 14.8592 43.6603 11.8436 40.2836 10.8205C36.9048 9.79741 31.9699 11.2474 31.172 14.7014Z" fill="#FCEE21"/>
<path d="M27.4095 19.8075C30.2204 18.7056 32.7156 16.8014 34.5268 14.3746C34.9712 16.2736 36.9393 17.3629 38.8562 17.6604C40.1414 17.8592 41.5615 17.5648 42.6721 18.244C43.5829 18.8002 44.0389 19.8864 44.2261 20.941C44.4143 21.9956 44.3923 23.0828 44.6329 24.1269C45.0501 25.9313 46.2841 27.5284 47.9196 28.3791C49.5562 29.2307 51.5651 29.3222 53.2707 28.6219C53.1818 26.3949 52.2699 24.4024 52.181 22.1754C52.0869 19.8107 51.9896 17.4207 51.3465 15.1443C50.7034 12.8679 49.4527 10.6819 47.4898 9.37702C45.3732 7.97122 42.6899 7.73989 40.1592 7.91339C36.8682 8.1384 33.5135 9.03214 30.966 11.1403C28.4186 13.2485 26.6105 16.589 27.4095 19.8075Z" fill="#333333"/>
<path d="M43.9729 85.6058C44.9664 85.5974 45.9577 85.5207 46.9491 85.3524C48.8461 85.0307 50.7002 84.4871 52.5104 83.8415C55.817 82.6628 59.1613 81.3064 62.1908 79.5147C63.9675 78.4643 65.3834 77.1573 66.4114 75.4487C61.1963 66.7931 56.4403 57.9597 53.5551 48.4166C52.7436 45.7302 52.0335 42.9059 50.2599 40.7368C48.4863 38.5676 45.416 36.3858 42.9899 37.7758C38.1889 47.7458 36.3589 59.2656 38.5779 70.1157C39.6801 75.5013 41.7204 80.5851 43.9729 85.6058Z" fill="#808080"/>
<path d="M41.2101 32.2244C50.9376 35.6763 59.3579 42.1985 66.4031 49.7743C73.4483 57.3501 79.2364 65.9995 84.9922 74.6067C84.0061 76.0567 82.8976 77.3216 81.9114 78.7716C73.2799 65.5988 60.4225 55.1095 46.0111 48.8722C42.9481 43.8935 41.1181 38.0768 41.2101 32.2244Z" fill="#808080"/>
<path d="M41.0136 32.5112C36.0243 39.5098 34.4745 48.5555 35.286 57.127C36.0975 65.6996 39.0894 73.9084 42.5069 81.8048C40.2606 71.0557 40.7835 59.3435 44.4248 48.9876C43.0433 48.28 41.709 47.7164 40.3265 47.0088C42.0739 46.8868 44.0263 46.1045 45.642 45.4263C44.2282 41.1974 42.8185 36.5888 41.0136 32.5112Z" fill="#999999"/>
<path d="M28.0182 63.5577C28.5264 69.1683 28.1311 74.8588 26.8689 80.3464C27.2339 79.9237 27.5926 79.4957 27.9303 79.0499C28.9761 77.6651 29.5366 76.0354 30.3251 74.5055C31.8466 71.5561 33.5585 68.7414 33.5826 65.3105C33.5847 65.0465 33.6662 64.8341 33.7959 64.6733C32.8777 57.6369 32.0119 50.9233 28.6059 44.6934C27.2004 47.5565 26.8794 50.8444 27.0184 54.0346C27.1565 57.2247 27.7306 60.378 28.0182 63.5577Z" fill="#B3B3B3"/>
<path d="M33.5826 58.9313C33.5752 58.7263 33.6171 58.5528 33.6934 58.4098C32.999 49.8435 33.7258 41.1585 35.878 32.8403C33.9214 34.3628 31.6249 35.6141 29.6683 37.1356C25.5648 40.3288 25.2124 46.4347 25.728 51.6258C26.9191 51.7677 28.0778 52.1799 29.0921 52.8234C28.22 52.9664 27.4127 53.4774 26.9065 54.2061C27.9355 54.4058 28.9238 54.8138 29.7959 55.3984C31.6145 56.6181 32.6801 58.434 33.3985 60.5232C33.5219 59.9954 33.6024 59.4644 33.5826 58.9313Z" fill="#999999"/>
<path d="M16.6101 32.1379C11.3312 33.2504 6.30323 35.5489 2 38.8179C2.03242 38.8231 2.06379 38.8305 2.09516 38.8358C2.08784 38.841 2.08052 38.8452 2.0732 38.8505C4.1375 45.7176 5.81487 53.205 6.96518 60.2856C6.98924 60.2803 7.01433 60.2761 7.03839 60.2709C7.0363 60.3319 7.0342 60.3918 7.03211 60.4528C11.5853 60.048 16.128 59.109 20.4354 57.5707C21.5031 49.036 20.014 40.0302 16.6101 32.1379Z" fill="#6B6974"/>
<path d="M32.3715 22.0018C32.7417 22.0018 33.0418 21.4261 33.0418 20.7159C33.0418 20.0057 32.7417 19.4299 32.3715 19.4299C32.0013 19.4299 31.7012 20.0057 31.7012 20.7159C31.7012 21.4261 32.0013 22.0018 32.3715 22.0018Z" fill="#1A1A1A"/>
<path d="M38.2758 22.0018C38.646 22.0018 38.9461 21.4261 38.9461 20.7159C38.9461 20.0057 38.646 19.4299 38.2758 19.4299C37.9056 19.4299 37.6055 20.0057 37.6055 20.7159C37.6055 21.4261 37.9056 22.0018 38.2758 22.0018Z" fill="#1A1A1A"/>
<path d="M34.3481 23.4497C34.2299 23.6169 34.0981 23.7798 34.0312 23.9733C33.9643 24.1668 33.9768 24.4044 34.1211 24.5495C34.2958 24.7241 34.6011 24.6946 34.8019 24.5495C35.0027 24.4044 35.1229 24.1762 35.2338 23.9544C35.4063 23.6085 35.9846 22.4098 35.3509 22.2195C34.849 22.0681 34.5562 23.1542 34.3481 23.4497Z" fill="#FBB03B"/>
<path d="M39.8517 24.6695C41.0923 24.6695 42.098 24.3009 42.098 23.8462C42.098 23.3915 41.0923 23.0229 39.8517 23.0229C38.6111 23.0229 37.6055 23.3915 37.6055 23.8462C37.6055 24.3009 38.6111 24.6695 39.8517 24.6695Z" fill="#FBB03B"/>
<path d="M33.6652 23.4339C33.6652 23.661 33.226 23.8461 32.6843 23.8461C32.1426 23.8461 31.7034 23.6621 31.7034 23.4339C31.7034 23.2068 32.1426 23.0217 32.6843 23.0217C33.2249 23.0228 33.6652 23.2068 33.6652 23.4339Z" fill="#FBB03B"/>
</svg>
