<svg width="40" height="40" viewBox="0 0 80 100" fill="none" xmlns="http://www.w3.org/2000/svg">
<circle cx="40" cy="45" r="40" fill="#C4C4C4"/>
<path d="M4.69832 20.7488C5.28377 19.7444 5.86923 18.7399 6.45469 17.7355C6.73903 17.2477 7.03176 16.7353 7.06848 16.1684C7.10625 15.6015 6.80093 14.9682 6.25849 14.8377C6.248 14.0066 6.01193 13.231 5.59539 12.5176C5.17885 11.803 4.46119 11.2404 3.65016 11.1644C2.35753 11.0435 1.24222 12.141 0.667252 13.3284C-0.627472 16.0005 0.00520119 19.5058 2.14979 21.5318C3.01119 21.3254 4.24716 21.5233 4.69832 20.7488Z" fill="#FFFF00"/>
<path d="M38.8058 24.8316C29.2066 27.5133 20.1782 32.2991 12.5126 38.7707C10.2243 32.3965 7.723 25.7869 5.43363 19.4126C4.09484 19.4875 2.31328 20.0234 1.27246 20.8856C1.54316 29.9105 4.31517 42.4783 7.01164 51.0796C12.2105 51.9375 17.0568 48.8846 21.9881 46.9988C31.0228 43.5415 35.4683 34.062 38.8058 24.8316Z" fill="#E6E6E6"/>
<path d="M7.02441 15.8901C6.91739 15.3616 6.67398 14.8632 6.32459 14.4577C6.06648 14.1582 5.68667 13.893 5.30896 13.9956C4.93963 14.0962 4.73189 14.523 4.74658 14.9113C4.76127 15.3007 4.94383 15.659 5.1222 16.0034C5.23026 16.212 4.99944 16.3864 4.96062 16.6196C4.9218 16.8528 4.93963 17.1352 5.13374 17.2646C5.34778 17.4069 5.63316 17.2732 5.83461 17.1127C6.23121 16.7961 6.8387 16.3682 7.02441 15.8901Z" fill="#FCEE21"/>
<path d="M28.8617 18.2296C27.0928 18.9142 25.7089 20.3508 24.0406 21.2622C22.3724 22.1736 20.0201 22.4004 18.8198 20.9081C18.335 20.3059 18.1094 19.4983 17.5408 18.9784C16.842 18.3388 15.7938 18.2885 14.8705 18.466C13.9483 18.6436 13.0596 19.0105 12.1237 19.0865C10.2299 19.2394 8.30458 18.0425 7.57119 16.2561C6.83779 14.4697 7.3519 12.2308 8.78722 10.9633C10.212 9.70424 12.3545 9.38119 13.5045 7.85795C14.3008 6.80431 14.4446 5.39874 14.9356 4.16646C15.8327 1.91798 18.0171 0.261032 20.3873 0.0321189C24.092 -0.325157 27.6573 2.52449 31.3096 1.79924C32.6316 1.53717 33.8298 0.819409 35.1434 0.513478C36.991 0.083464 39.017 0.532733 40.5216 1.70725C42.0262 2.88177 42.982 4.75693 43.0576 6.68772C45.732 7.27818 47.4328 10.7953 47.1148 13.5669C46.7969 16.3384 45.092 18.7324 43.2454 20.7905C41.3988 22.8486 39.3245 24.7526 37.9731 27.1787C34.0134 25.8512 30.8983 22.6806 29.6014 18.6415C29.4965 18.312 28.5281 18.1655 28.8617 18.2296Z" fill="#1A1A1A"/>
<path d="M25.4884 16.5287C23.9744 17.9685 21.4006 18.0466 19.8048 16.7031C19.1354 16.1393 18.6202 15.3606 17.8323 14.9905C16.7285 14.4717 15.4474 14.8964 14.2335 14.9466C11.8277 15.0472 9.51311 13.3924 8.58351 11.1567C7.30557 12.45 6.8733 14.5573 7.57102 16.2559C8.30442 18.0423 10.2297 19.2393 12.1235 19.0863C13.0594 19.0104 13.9481 18.6435 14.8704 18.4659C15.7926 18.2883 16.8418 18.3386 17.5406 18.9783C18.1093 19.4992 18.3349 20.3058 18.8196 20.908C20.0199 22.4002 22.3722 22.1734 24.0405 21.2621C25.2764 20.5871 26.3571 19.6233 27.5532 18.8906C27.2426 17.8081 26.5218 16.8261 25.4884 16.5287Z" fill="#333333"/>
<path d="M26.0833 85.0788C26.7349 85.4008 27.4169 85.604 28.101 85.8372C30.9695 86.8128 33.9765 87.1872 36.9825 87.3744C40.0263 87.5648 43.1152 87.7798 46.1652 87.63C49.1481 87.4835 51.9212 86.6651 54.6785 85.5334C56.7801 84.6702 58.8491 83.7096 61.001 82.9908C60.381 70.7129 58.5018 58.4607 55.4497 46.6257C53.8874 40.5702 51.8918 34.3842 47.7233 29.7856C43.5548 25.187 35.8242 24.1162 30.2393 26.7198C26.3131 45.7368 24.6564 65.2372 25.2964 84.6595C25.5556 84.805 25.8168 84.9462 26.0833 85.0788Z" fill="#F2F2F2"/>
<path opacity="0.1" d="M53.7006 85.9195C54.0269 85.7954 54.3521 85.666 54.6784 85.5333C56.78 84.6701 58.849 83.7095 61.001 82.9907C60.3809 70.7128 58.5017 58.4606 55.4496 46.6256C55.4286 46.5454 55.4076 46.4651 55.3866 46.3849C50.5152 41.6162 43.8653 38.4222 37.8176 35.4238C39.0326 49.0773 44.3206 62.3254 52.8014 72.9645C53.199 77.2326 53.497 81.5691 53.7006 85.9195Z" fill="black"/>
<path opacity="0.1" d="M47.6381 29.6947C43.4507 25.1731 35.7873 24.1334 30.2391 26.7199C29.8687 28.5127 29.5193 30.3097 29.1898 32.11C26.102 36.7182 23.4475 41.6281 21.2683 46.7476C22.3563 47.3081 23.6143 47.5028 24.7727 47.1423C27.9371 46.1572 29.1752 41.7447 32.3773 40.8954C35.0497 40.1862 38.1627 42.2763 40.5003 40.7798C42.7414 39.3454 42.348 35.9042 43.5913 33.522C44.4642 31.848 46.1 30.7986 47.6381 29.6947Z" fill="black"/>
<path d="M29.9233 18.8727C30.9369 21.947 31.6315 25.1315 31.9903 28.3545C34.3195 30.0093 37.5511 30.1687 39.873 28.5021C39.3662 24.8288 37.5521 21.3919 35.0267 18.7208C33.3899 18.3293 31.4856 18.2373 29.9233 18.8727Z" fill="#FFFF00"/>
<path d="M30.8845 22.2013C31.3892 24.2241 31.7596 26.2811 31.9904 28.3541C32.6157 28.7991 33.3071 29.1339 34.0279 29.3564C36.013 28.4108 37.7558 26.9325 39.019 25.1076C38.7987 24.5065 38.5437 23.9171 38.2583 23.3416C37.2501 22.9404 36.2124 22.4484 35.2734 22.2302C33.8454 21.8986 32.3324 21.7563 30.9296 22.1863C30.915 22.1917 30.9003 22.1959 30.8845 22.2013Z" fill="#FCEE21"/>
<path d="M26.139 8.9909C24.8747 14.9619 25.1527 21.2656 26.9364 27.0964C29.8563 26.9199 33.5422 26.3273 36.0634 24.8159C38.5542 23.3226 40.7356 21.1693 41.8813 18.4641C43.027 15.7599 43.0239 12.4781 41.5025 9.97288C40.0441 7.5725 37.3193 6.11237 34.5547 5.93053C31.7889 5.75082 28.378 7.32754 26.139 8.9909Z" fill="#FFFF00"/>
<path d="M26.0847 21.7499C25.8927 21.9564 25.6818 22.1596 25.5894 22.4281C25.4971 22.6966 25.5758 23.0517 25.835 23.1576C26.0154 23.2314 26.22 23.164 26.3984 23.0827C27.5473 22.5607 28.4234 21.4568 28.6836 20.2021C28.7528 19.8694 28.7759 19.5036 28.6112 19.2083C28.2177 18.5034 27.7151 18.942 27.478 19.4041C27.0426 20.2481 26.7457 21.0375 26.0847 21.7499Z" fill="#FCEE21"/>
<path d="M20.3925 16.4143C25.6333 17.6391 31.4418 15.934 35.2399 12.0532C34.8979 13.692 35.8107 15.872 37.118 16.8882C36.991 17.6765 36.8955 18.3847 36.7686 19.173C37.3121 18.2082 38.0749 17.0561 38.6184 16.0913C38.8502 15.6794 39.1503 15.2205 39.6141 15.1745C40.0621 15.1307 40.4629 15.5318 40.5678 15.9789C40.6727 16.425 40.5499 16.8935 40.3863 17.3214C39.848 18.7313 38.8555 19.955 37.5996 20.7583C37.4621 22.1853 37.8975 23.8219 38.867 24.8606C41.5404 21.4568 44.1068 17.1749 43.3524 12.8833C42.7376 9.37898 39.9131 6.54323 36.628 5.33449C33.344 4.12681 29.6833 4.36642 26.3206 5.32058C23.9189 6.00197 21.4921 7.13798 20.082 9.23457C18.6718 11.3322 18.4137 14.8686 20.3925 16.4143Z" fill="#1A1A1A"/>
<path d="M30.4731 19.8683C29.4806 19.3934 28.7388 18.4082 28.5447 17.3075C28.4607 16.8304 28.4786 16.3212 28.6884 15.887C28.8983 15.4527 29.3221 15.1082 29.7974 15.089C30.2717 15.0697 30.7575 15.4334 30.8036 15.9158C30.7512 15.1681 31.3849 14.4225 32.026 14.0546C32.4341 13.8192 32.9335 13.6567 33.3679 13.8385C33.7372 13.9925 33.9817 14.3755 34.0604 14.7745C34.1391 15.1735 34.0751 15.5885 33.9712 15.9811C33.5232 17.6755 32.0365 19.1292 30.4731 19.8683Z" fill="#808080"/>
<path d="M25.2543 20.0383C24.5199 19.6864 23.9712 18.9579 23.8274 18.1439C23.7655 17.7909 23.7792 17.4144 23.9334 17.0924C24.0887 16.7704 24.4024 16.5158 24.7539 16.5019C25.1054 16.4869 25.4642 16.7576 25.4988 17.1138C25.46 16.5608 25.929 16.0088 26.4032 15.736C26.7054 15.5617 27.0747 15.4419 27.3958 15.5756C27.6696 15.69 27.8501 15.9724 27.9078 16.2677C27.9666 16.5629 27.9183 16.8699 27.8417 17.1598C27.5112 18.4156 26.4116 19.4917 25.2543 20.0383Z" fill="#808080"/>
<path d="M15.1483 90.9651C14.2858 90.6891 13.3122 90.7993 12.5284 91.2592C11.7457 91.7203 11.1655 92.5247 10.9672 93.4243C9.55286 92.8124 7.54573 93.6564 7.12185 95.1614C6.6602 96.8013 7.87728 98.6016 9.47312 99.1118C11.07 99.621 12.8505 99.0519 14.182 98.0196C15.5134 96.9874 16.4724 95.5422 17.36 94.0971C17.1649 92.7953 16.3811 91.3598 15.1483 90.9651Z" fill="#FFFF00"/>
<path d="M46.5452 27.9607C42.6505 28.6057 39.9425 32.2052 38.0182 35.7181C33.4185 44.1162 30.8952 53.6856 30.7441 63.3032C25.2693 72.4704 19.912 81.7382 14.4373 90.9054C15.3826 92.2382 16.0342 93.493 16.9795 94.8247C26.4192 87.6771 34.8622 79.2725 41.2351 69.1972C47.608 59.1218 51.4765 47.137 50.6476 35.1779C50.4682 32.5678 48.8723 29.0635 46.5452 27.9607Z" fill="white"/>
</svg>
