<svg width="40" height="40" viewBox="0 0 87 103" fill="none" xmlns="http://www.w3.org/2000/svg">
<circle cx="40" cy="44" r="40" fill="#C4C4C4"/>
<path d="M81.3561 49.1172C80.6962 28.534 71.7329 29.1829 71.7329 29.1829C71.7329 29.1829 78.7416 86.3011 77.7246 94.8697C76.7075 103.44 82.8084 103.585 86.0031 102.568C89.1978 101.551 83.6788 91.8201 83.6788 91.8201C83.6788 91.8201 82.1111 72.6361 81.3561 49.1172Z" fill="#FFF200"/>
<path d="M71.7346 29.1832C71.7346 29.1832 75.1883 57.3257 76.8948 77.0665C79.1271 77.2803 81.0879 76.4769 82.573 75.5253C82.1424 68.2499 81.6776 59.0728 81.3578 49.119C80.6964 28.5358 71.7346 29.1832 71.7346 29.1832Z" fill="url(#paint0_linear)"/>
<path d="M77.7249 65.8941C77.6157 64.6961 71.7332 29.1829 71.7332 29.1829C71.7332 29.1829 62.5827 28.2033 61.8199 27.3313C61.0571 26.4593 61.7107 22.3208 61.7107 22.3208L52.9954 20.1416C52.9954 20.1416 53.4306 26.5685 52.9954 27.0037C52.5602 27.4389 43.1913 29.7772 43.1913 29.7772V64.367C43.1913 64.367 42.3084 73.0557 41.3865 81.342C41.4879 81.3701 41.5893 81.4044 41.6875 81.4481C42.5673 81.8334 43.3645 82.3809 44.1803 82.8864C45.4735 83.2093 46.8275 83.5306 47.9927 84.1499C48.2969 84.3121 48.506 84.5742 48.6245 84.8753C52.7786 84.9267 56.9748 84.3792 60.9619 83.6211C67.158 82.4449 73.2167 80.6479 79.1725 78.5763C78.3426 71.3819 77.7561 66.2373 77.7249 65.8941Z" fill="#FCCC42"/>
<path d="M61.9913 1.8501C47.7867 2.37891 49.044 12.9521 50.5618 18.6895C52.0796 24.4269 60.2364 26.1272 63.4467 25.9462C65.8833 25.8089 66.5307 22.6829 66.7756 18.7503L66.9566 14.0518C66.9893 13.0363 67.0299 12.0224 67.097 11.0396C67.5431 4.40369 61.9913 1.8501 61.9913 1.8501Z" fill="#FFF200"/>
<path d="M79.5749 82.0379C78.5376 73.0792 77.7623 66.2889 77.7264 65.8927C77.6172 64.6947 71.7348 29.1815 71.7348 29.1815C71.7348 29.1815 67.7788 28.7572 64.8524 28.219C58.0496 36.836 49.172 28.2221 49.1705 28.219C46.4172 28.9724 43.196 29.7758 43.196 29.7758V64.3655C43.196 64.3655 42.7763 68.4993 42.2132 73.7828C40.8483 75.9838 39.8109 78.3892 40.3756 81.052C40.9996 83.9971 43.7763 85.6304 46.5467 86.1373C49.9848 86.7644 53.4291 86.2637 56.8812 86.1124C58.6642 86.0344 60.4238 86.0859 62.1771 86.4369C63.8727 86.7754 65.5699 87.2012 67.3124 87.1544C69.3606 87.0983 71.3994 86.5944 73.4039 86.2122C75.5425 85.8051 77.6827 85.3964 79.8214 84.9892C81.542 84.6617 81.0693 82.275 79.5749 82.0379Z" fill="url(#paint1_linear)"/>
<path d="M49.1689 28.2206C48.4092 28.428 47.6121 28.6402 46.8586 28.8383C46.9117 28.91 46.9678 28.9818 47.0318 29.0504C52.7863 35.2262 62.7402 35.2355 68.5135 29.0816C68.5946 28.9943 68.6632 28.9054 68.7256 28.8149C67.4995 28.6527 66.0847 28.4452 64.8523 28.219C58.048 36.8376 49.1704 28.2237 49.1689 28.2206Z" fill="#BCBEC0"/>
<path d="M33.6787 34.6489C32.5306 32.3932 29.679 30.5353 28.9849 28.2033C28.8648 27.8008 28.2346 27.9724 28.3547 28.3764C28.4826 28.8054 28.6557 29.2032 28.8616 29.5775C28.4951 29.4652 28.0489 29.5541 27.7728 29.8443C23.0275 27.2065 17.2933 25.4516 12.1751 28.1346C9.65587 29.4559 8.01015 31.7958 7.16624 34.4695C6.38783 36.9326 5.89334 40.0945 7.06796 42.5062C8.30342 45.0411 11.3702 46.2952 14.0127 46.6525C15.2451 46.8194 16.479 46.7929 17.7066 46.5838C18.4055 46.4653 19.0887 46.2812 19.7501 46.0285C20.4895 45.7477 21.2492 45.2329 22.0448 45.1487C23.0057 45.0457 23.132 45.6713 23.561 46.3452C23.8699 46.8318 24.2723 47.1922 24.7949 47.4309C25.9773 47.9706 27.3797 47.6882 28.6183 47.5666C30.9956 47.3326 34.5678 47.5666 36.1824 45.4061C37.0294 44.2736 37.0356 42.801 37.0512 41.4454C37.0684 39.9386 36.9608 38.349 36.1933 37.0121C35.6005 35.9795 34.6755 35.2557 33.6787 34.6489ZM29.4778 30.5244C29.9302 31.1281 30.4574 31.6834 30.9972 32.2403C31.5057 32.7645 32.0548 33.351 32.5087 33.9874C31.1064 33.2262 29.4326 32.3136 29.4778 30.5244Z" fill="#231F20"/>
<path d="M12.6151 71.3382C13.9956 71.268 15.3746 71.1854 16.752 71.0871C21.5004 70.7486 26.2473 70.2369 30.9239 69.3337C32.0658 69.1138 33.1952 68.8439 34.323 68.5569C34.9782 65.6944 36.1232 60.6715 36.8641 57.2615C37.9529 52.251 38.1713 44.2985 32.8333 40.7029C27.4952 37.1089 24.5875 41.8588 24.7201 34.1169C24.8278 27.8492 18.2355 30.136 18.2355 30.136C18.2355 30.136 19.5427 38.3053 16.0563 38.8513C12.5699 39.3957 11.155 39.7233 11.155 39.7233C11.155 39.7233 12.9942 68.535 12.6151 71.3382Z" fill="#FCCC42"/>
<path d="M28.7212 14.9579C27.6666 14.2575 26.6839 15.9547 27.7322 16.6504C29.4091 17.7642 30.072 19.6782 29.5588 21.6141C29.2344 22.8355 31.125 23.355 31.4495 22.1351C32.1935 19.3257 31.1297 16.5584 28.7212 14.9579Z" fill="#231F20"/>
<path d="M25.4486 13.8381C12.8553 14.3077 13.9707 23.6812 15.3153 28.7681C16.66 33.8551 23.8934 35.3635 26.7387 35.2013C28.8991 35.0796 29.4732 32.3076 29.69 28.8212L29.8507 24.6546C29.8803 23.7546 29.9162 22.856 29.9739 21.984C30.3717 16.1031 25.4486 13.8381 25.4486 13.8381Z" fill="#F9ED32"/>
<path d="M32.8346 40.7061C29.6306 38.5487 27.3047 39.3942 25.9835 38.7437C26.4592 37.7828 25.6403 36.2151 24.2083 36.4787C22.1663 36.8531 20.1135 36.7657 18.1012 36.2681C16.5475 35.8844 15.7207 37.7688 16.5023 38.7328C16.3634 38.7874 16.2168 38.8295 16.0592 38.8545C12.5728 39.3989 11.158 39.7265 11.158 39.7265C11.158 39.7265 13.1157 70.4398 12.5712 71.5286C12.526 71.6191 12.4558 71.7329 12.3653 71.8655C16.9312 73.3225 25.0179 74.9589 34.1933 72.5457C34.0717 71.956 33.9469 71.3664 33.8158 70.772C33.8158 70.772 35.7767 62.2751 36.8655 57.2647C37.9543 52.2526 38.1727 44.3001 32.8346 40.7061Z" fill="white"/>
<path d="M18.0685 52.6645C17.3587 48.0565 16.3791 43.4953 15.1545 38.998C15.1077 39.0043 11.1986 39.5471 9.40464 39.9917C8.58412 41.4284 8.05219 43.163 7.69341 44.3548C6.52659 48.2234 6.05081 52.287 5.98997 56.3179C5.92757 60.3893 6.30508 64.4451 6.81049 68.4806C7.08504 70.6738 7.29719 72.8375 6.58742 74.973C5.94629 76.8995 4.87307 78.6653 4.07595 80.5279C2.32259 84.6211 1.24625 88.9327 0.811028 93.3598C0.725232 93.5454 0.722113 93.7389 0.77515 93.9198C0.818828 94.4284 1.24313 94.6779 1.68926 94.6701C1.94041 94.6982 2.20716 94.6327 2.44739 94.4252C5.24433 92.0152 6.92593 88.6676 9.95685 86.4696C11.4762 85.3668 13.0892 84.3715 14.4666 83.0862C15.8549 81.7899 16.9391 80.1941 17.705 78.4594C19.4069 74.6033 19.5909 70.3587 19.4178 66.2047C19.2244 61.67 18.7595 57.1477 18.0685 52.6645Z" fill="#414042"/>
<path d="M32.8348 40.7061C30.5183 39.1462 28.6605 39.1571 27.3096 39.0354C29.3188 46.5948 29.4295 54.4506 28.843 62.2127C28.5435 66.1734 28.0646 70.1169 27.567 74.0572C27.3657 75.6546 27.1629 77.3284 27.8509 78.8431C28.531 80.339 29.9599 80.807 31.0019 81.9473C31.6493 82.6571 31.6976 83.6539 31.9503 84.5383C32.1953 85.3947 32.6024 86.1529 33.1624 86.8455C34.3308 88.2884 36.6722 89.4895 36.8922 91.4972C36.8953 91.5408 36.9015 91.5814 36.9093 91.6204C36.9405 91.8216 37.0185 91.9916 37.1246 92.1289C36.5521 86.0624 35.6286 79.4702 34.192 72.5457C34.0703 71.956 33.9455 71.3664 33.8145 70.772C33.8145 70.772 35.7753 62.2751 36.8641 57.2647C37.9545 52.2526 38.1729 44.3001 32.8348 40.7061Z" fill="#414042"/>
<path d="M61.1785 18.7221C58.7044 19.4693 55.555 21.1275 53.0716 19.5271C52.4897 19.1527 52.1824 20.0668 52.7596 20.4381C52.9904 20.5878 52.3353 20.7204 52.5755 20.8234L52.1418 21.3584C51.7565 21.1026 52.6987 21.934 52.3181 21.6782C52.1481 21.5643 51.9812 21.5674 51.8455 21.6361C55.7406 25.8931 62.7587 26.4406 63.9754 26.2191C65.1095 26.0117 66.3995 23.8777 66.66 20.2025L66.7755 18.7487C65.9222 18.3322 65.8302 18.4897 64.8864 18.3446C63.6291 18.1512 62.3843 18.3587 61.1785 18.7221ZM65.8738 21.0854C65.9082 21.1275 65.9331 21.1712 65.9518 21.2165C66.0376 21.36 66.0595 21.544 65.9565 21.7344C65.4137 22.7452 64.4528 23.5345 63.2625 23.4861C61.9818 23.4331 60.9523 22.5954 60.0678 21.7499C59.7231 21.4208 59.9961 20.8483 60.4469 20.8358C62.2501 20.7859 64.4169 19.2884 65.8738 21.0854Z" fill="#231F20"/>
<path d="M70.9047 3.28519C70.5179 3.33355 70.1607 3.50826 69.7769 3.56754C69.2949 3.64085 68.8051 3.54102 68.334 3.4365C66.4496 3.01532 64.7259 2.10901 62.9398 1.40548C61.2691 0.747197 59.2896 0.155987 57.4785 0.365016C56.3881 0.49137 55.3679 0.89695 54.3586 1.30721C53.4539 1.67535 52.5335 2.02165 51.6693 2.48027C50.0205 3.35539 48.7164 4.59397 48.094 6.38164C47.4965 8.09911 47.4045 10.1629 47.5324 11.963C47.6478 13.5713 48.0675 15.125 48.5214 16.6662C48.5276 16.6865 48.5339 16.7052 48.5417 16.7255C48.679 17.0765 50.178 20.1682 50.6523 20.658C50.894 20.9076 51.4119 21.321 51.8284 21.658C52.2309 21.984 52.8377 21.7812 52.9578 21.2773C52.9578 21.2742 52.9594 21.2711 52.9609 21.268C53.0795 20.7672 53.184 20.2603 53.2776 19.7517C53.2589 19.733 53.2386 19.7159 53.2214 19.6956C52.2106 18.6052 51.4587 16.6537 51.6553 15.1484C51.7536 14.3981 52.2434 13.7258 52.989 13.5167C53.2792 13.4356 53.5537 13.4278 53.8142 13.473C53.9702 13.5011 54.1246 13.4699 54.2588 13.3966C54.2713 13.3763 54.2853 13.3545 54.2994 13.3342C55.8172 11.2626 57.5534 8.98983 60.2037 8.39238C62.255 7.92908 64.1066 8.62949 65.9426 9.40945C68.4822 10.4889 71.4336 9.05847 72.056 6.36916C72.0684 6.31612 72.0794 6.26308 72.0918 6.21005C72.1121 6.11645 72.1511 6.0291 72.2042 5.94954C72.5754 5.39421 72.7158 4.75464 72.4069 4.05423C72.1215 3.41466 71.5724 3.20096 70.9047 3.28519Z" fill="#414042"/>
<path d="M75.1103 65.1906C68.2841 65.5307 69.7364 66.5477 67.267 66.6928C64.7977 66.8379 46.3859 63.6759 44.7542 64.3685C44.7542 64.3685 49.3295 32.9517 43.1927 29.7788C43.1927 29.7788 35.6037 29.4902 34.7317 40.4658C33.8597 51.4414 31.3576 74.1289 35.5148 74.7685C39.6704 75.4081 69.1561 72.0667 69.8814 72.3584C70.6084 72.6486 76.1274 72.5004 77.4346 73.6656C78.7418 74.8293 81.9381 64.8505 75.1103 65.1906Z" fill="#FC9F90"/>
<path d="M75.1103 65.1905C68.2841 65.5306 69.7364 66.5476 67.267 66.6927C65.7508 66.7816 58.2179 65.6226 52.2543 64.877L49.6758 68.7315L49.8957 74.0524C59.1804 73.26 69.4572 72.1868 69.8815 72.3568C70.6084 72.6469 76.1274 72.4988 77.4346 73.664C78.7418 74.8293 81.9381 64.8504 75.1103 65.1905Z" fill="#FFF200"/>
<path d="M44.7542 64.3685C44.7542 64.3685 49.3295 32.9517 43.1927 29.7788C43.1927 29.7788 35.6037 29.4902 34.7317 40.4658C33.8597 51.4414 31.3576 74.1289 35.5148 74.7685C37.6519 75.0977 46.4935 74.3723 54.6738 73.6313C54.6628 70.8157 55.2385 67.5118 55.7002 65.3263C50.5836 64.6399 45.5716 64.0222 44.7542 64.3685Z" fill="white"/>
<path d="M41.3815 67.4306C35.5583 70.045 38.3912 72.0792 29.5308 71.4256C22.26 70.889 16.5195 71.2774 14.5665 71.4443C14.2046 71.4755 13.7226 71.201 13.696 70.8391L11.1565 39.7249C11.1565 39.7249 4.69372 39.834 4.11187 46.2968C3.53158 52.7596 4.59076 74.8402 7.23483 77.425C9.01783 79.1675 33.8144 77.7433 37.2275 74.9838C40.6406 72.2243 43.8774 70.2634 46.3624 70.5536C48.8473 70.8437 47.2047 64.8162 41.3815 67.4306Z" fill="#414042"/>
<path d="M41.3814 67.4305C35.5582 70.045 38.3911 72.0791 29.5307 71.4255C27.3749 71.2664 25.3548 71.1884 23.5281 71.1634L21.873 77.8758C28.6416 77.3844 35.5442 76.3471 37.2289 74.9853C40.642 72.2257 43.8789 70.2649 46.3638 70.5551C48.8472 70.8437 47.2046 64.8161 41.3814 67.4305Z" fill="#F9ED32"/>
<path d="M24.9384 73.0448C24.6295 70.8859 22.7124 70.5708 20.8982 71.0341C20.8374 71.0497 20.7812 71.0699 20.7282 71.0933C20.2071 71.1089 19.6861 71.1261 19.1667 71.1417C19.07 71.1448 18.9857 71.1667 18.9109 71.1994C16.8986 71.2618 15.3932 71.3726 14.5665 71.4428C14.2046 71.474 13.7226 71.1994 13.696 70.8375L11.1565 39.7249C11.1565 39.7249 4.69372 39.834 4.11187 46.2968C3.53158 52.7596 4.59076 74.8403 7.23483 77.4251C7.86504 78.0397 11.3639 78.2596 15.777 78.166C17.2308 78.9788 18.7268 79.715 20.2649 80.364C21.8045 81.0145 24.1943 81.9582 24.8776 79.687C25.1724 78.7058 25.1084 77.5421 25.1147 76.5297C25.1225 75.3738 25.1022 74.1913 24.9384 73.0448Z" fill="#414042"/>
<path d="M28.3423 14.7942C25.458 11.4981 20.4631 10.8601 16.5992 12.8771C14.4294 14.0096 12.6916 15.894 11.5076 18.0155C10.946 19.0247 10.4905 20.1073 10.1536 21.2117C9.7605 22.5002 9.65755 23.8542 9.27225 25.1412C8.5344 27.6012 5.67975 28.3515 4.84363 30.7959C4.5098 31.7755 4.50045 32.8113 4.45053 33.8362C4.26802 34.1138 4.07459 34.3853 3.86556 34.6489C3.10431 35.6114 2.14028 36.3976 1.4118 37.3881C0.681755 38.3787 0.243417 39.6843 0.556961 40.8137C0.0297074 42.0632 -0.163723 43.4375 0.152941 44.8149C0.365091 45.7431 0.886105 46.6821 1.73158 47.1704C2.13092 47.3997 2.58642 47.5011 3.04348 47.5198C3.14487 47.5245 3.24159 47.5229 3.33362 47.5198C3.37574 49.4479 3.55981 51.9718 5.25701 53.0575C6.40355 53.7907 7.34106 53.2728 8.02431 52.4102C8.20682 52.4227 8.38777 52.4258 8.56872 52.4133C10.918 52.2526 12.2205 50.2684 12.7228 48.1812C13.7399 48.2452 14.7647 47.6789 15.2686 46.7196C16.047 45.2361 15.4246 43.5607 14.6337 42.2395C14.1142 41.3737 13.3561 40.483 13.2953 39.4301C13.2875 39.2866 13.2953 39.1462 13.314 39.0089C14.5994 37.6767 16.2654 36.6862 17.6943 35.3977C19.7409 33.5554 19.9234 31.0673 19.758 28.5106C20.1808 26.7105 20.591 24.9072 21.5972 23.4019C24.5408 21.739 28.6371 20.9465 28.4858 17.2402C28.6262 16.9157 28.7338 16.5725 28.8056 16.2106C28.9335 16.0172 28.9756 15.7801 28.8805 15.5305C28.8618 15.1452 28.6387 14.8987 28.3423 14.7942ZM2.45227 38.0386C1.91565 38.5721 1.43988 39.1742 1.05302 39.8263C1.19341 38.374 2.74865 36.864 3.65341 35.8906C3.8874 35.6395 4.10578 35.3774 4.31637 35.1106C4.06367 36.3196 3.4007 37.098 2.45227 38.0386ZM4.64708 51.2215C4.11202 50.064 4.01843 48.7787 3.98879 47.5151C4.26646 47.5557 4.45989 47.7101 4.55504 48.1984C4.76875 49.3122 4.72039 50.4275 5.56119 51.3135C6.03229 51.8096 6.64846 52.1372 7.30831 52.301C6.17424 53.1995 5.15249 52.3166 4.64708 51.2215ZM18.8861 32.4042C18.3838 34.1357 17.0438 35.1418 15.6461 36.1464C15.1719 36.4881 14.7039 36.8406 14.2515 37.2119C14.3638 37.0824 14.4808 36.9591 14.5963 36.8406C15.8723 35.549 17.3448 34.5615 18.259 32.9423C18.638 32.2716 18.9188 31.554 19.1528 30.8131C19.1169 31.3528 19.0374 31.8847 18.8861 32.4042ZM22.7094 22.1321C23.8482 21.1556 25.3083 20.5737 26.4985 19.6627C26.8947 19.3585 27.255 19.0278 27.5686 18.6691C26.7871 20.4115 24.4924 21.3521 22.7094 22.1321Z" fill="#231F20"/>
<defs>
<linearGradient id="paint0_linear" x1="81.4274" y1="49.8575" x2="72.0745" y2="55.3324" gradientUnits="userSpaceOnUse">
<stop stop-color="white"/>
<stop offset="1" stop-color="#EEEDF9"/>
</linearGradient>
<linearGradient id="paint1_linear" x1="65.4751" y1="48.8724" x2="55.7632" y2="71.6374" gradientUnits="userSpaceOnUse">
<stop stop-color="white"/>
<stop offset="1" stop-color="#EEEDF9"/>
</linearGradient>
</defs>
</svg>
